<svg width="321" height="40" viewBox="0 0 321 40" fill="none" xmlns="http://www.w3.org/2000/svg">
    <g clip-path="url(#clip0_1828_42737)">
        <path
            d="M123.56 11.008V0.295994H99.736H63.304H53.768L34.264 26.496L24.792 0.287994H14.416L0 39.688H11.296L13.048 34.888H26L27.576 39.688H38.904L37.152 34.888H52.568V39.688H63.296V34.888H69.376V24.312H63.296V11.016H76.608V39.696H78.632V8.86399H63.304V6.35999H81.392V39.688H82.568V6.35999H99.6V8.87199H85.328V39.696H87.352V11.008H99.6V39.688H123.56V28.976H110.328V24.312H123.56V15.32H110.328V11.008H123.56ZM16.424 25.416L19.384 17.4L22.376 25.416H16.424ZM52.568 25.416H47.12L52.568 17.4V25.416ZM63.304 4.94399V2.43999H99.6V4.93599H63.304V4.94399Z"
            fill="#B0368F" />
        <path
            d="M147.672 16.368L146.072 11.96H140.568L138.992 16.368H135.808L141.608 0.303986H145L151.08 16.368H147.664H147.672ZM143.304 4.39198L141.56 9.22398H145.064L143.296 4.39198H143.304Z"
            fill="#B0368F" />
        <path
            d="M153.888 0.303986H157.136C159.768 0.303986 161.832 1.01599 163.32 2.43999C164.816 3.86399 165.56 5.82399 165.56 8.31199C165.56 10.8 164.808 12.752 163.312 14.2C161.808 15.648 159.752 16.368 157.136 16.368H153.888V0.303986ZM157.12 3.15999V13.512H157.304C158.84 13.528 160.032 13.08 160.904 12.176C161.768 11.272 162.208 9.98398 162.208 8.31199C162.208 6.63999 161.776 5.37599 160.92 4.47999C160.064 3.58399 158.856 3.14399 157.312 3.15999H157.128H157.12Z"
            fill="#B0368F" />
        <path
            d="M172.832 16.368L166.8 0.303986H170.424L174.672 12.304L178.944 0.303986H182.376L176.32 16.368H172.84H172.832Z"
            fill="#B0368F" />
        <path
            d="M183.584 8.36C183.584 5.976 184.36 3.984 185.92 2.392C187.472 0.8 189.464 0 191.872 0C194.28 0 196.432 0.784 197.976 2.36C199.52 3.928 200.296 5.912 200.296 8.312C200.296 10.712 199.52 12.704 197.976 14.288C196.432 15.872 194.416 16.664 191.944 16.664C189.472 16.664 187.4 15.88 185.872 14.32C184.344 12.76 183.584 10.768 183.584 8.352V8.36ZM188.304 4.504C187.416 5.512 186.968 6.784 186.968 8.336C186.968 9.888 187.424 11.16 188.336 12.152C189.248 13.152 190.448 13.648 191.936 13.648C193.424 13.648 194.656 13.152 195.56 12.16C196.456 11.168 196.904 9.896 196.904 8.328C196.904 6.76 196.448 5.504 195.536 4.496C194.624 3.488 193.416 2.984 191.912 2.984C190.408 2.984 189.192 3.488 188.304 4.496V4.504Z"
            fill="#B0368F" />
        <path
            d="M215.04 12.304L216.92 14.552C215.48 15.96 213.712 16.664 211.608 16.664C209.072 16.664 207.032 15.88 205.488 14.32C203.944 12.76 203.176 10.768 203.176 8.352C203.176 5.936 203.952 3.96 205.496 2.376C207.04 0.792 209.056 0 211.536 0C213.688 0 215.464 0.624 216.872 1.88L214.968 4.296C213.976 3.432 212.84 2.992 211.552 2.992C210.032 2.992 208.824 3.496 207.92 4.504C207.016 5.512 206.56 6.784 206.56 8.336C206.56 9.888 207.032 11.136 207.968 12.144C208.904 13.152 210.112 13.656 211.6 13.656C212.856 13.656 214 13.208 215.032 12.312L215.04 12.304Z"
            fill="#B0368F" />
        <path
            d="M230.824 16.368L229.224 11.96H223.72L222.144 16.368H218.96L224.76 0.303986H228.152L234.232 16.368H230.816H230.824ZM226.464 4.39198L224.72 9.22398H228.224L226.456 4.39198H226.464Z"
            fill="#B0368F" />
        <path d="M243.944 3.31999H241.016V16.368H237.792V3.31999H234.864V0.303986H243.944V3.31999Z" fill="#B0368F" />
        <path
            d="M254.688 16.368H247.256V0.303986H254.616V3.31999H250.488V6.66399H254.504V9.63198H250.488V13.344H254.688V16.36V16.368Z"
            fill="#B0368F" />
        <path
            d="M261.168 4.368C261.168 5.176 261.672 5.784 262.68 6.2C262.848 6.28 263.208 6.424 263.76 6.64C264.312 6.856 264.752 7.04 265.096 7.2C267.152 8.112 268.184 9.608 268.184 11.68C268.184 13.2 267.696 14.408 266.72 15.312C265.744 16.216 264.464 16.672 262.888 16.672C262.064 16.672 261.344 16.568 260.72 16.36C260.096 16.152 259.592 15.88 259.208 15.544C258.824 15.208 258.52 14.808 258.28 14.336C258.04 13.864 257.88 13.392 257.8 12.92C257.72 12.448 257.696 11.952 257.728 11.424H260.792C260.776 12.136 260.936 12.72 261.264 13.184C261.6 13.648 262.136 13.88 262.88 13.88C263.472 13.88 263.944 13.72 264.304 13.392C264.664 13.064 264.848 12.608 264.848 12.024C264.848 11.128 264.272 10.44 263.128 9.96C262.976 9.896 262.56 9.728 261.888 9.448C261.216 9.168 260.704 8.928 260.344 8.728C258.752 7.896 257.952 6.496 257.952 4.528C257.952 3.2 258.4 2.112 259.296 1.264C260.192 0.416 261.384 0 262.872 0C264.576 0 265.816 0.448 266.584 1.336C267.36 2.224 267.712 3.384 267.648 4.808H264.68C264.68 4.208 264.52 3.712 264.2 3.336C263.88 2.96 263.44 2.768 262.864 2.768C262.32 2.768 261.904 2.92 261.6 3.224C261.296 3.528 261.144 3.912 261.144 4.376L261.168 4.368Z"
            fill="#B0368F" />
        <path
            d="M284.336 9.63198H280.248V16.368H277.024V0.303986H284.456V3.31999H280.256V6.66399H284.344V9.63198H284.336Z"
            fill="#B0368F" />
        <path
            d="M287.52 8.36C287.52 5.976 288.296 3.984 289.856 2.392C291.408 0.8 293.4 0 295.808 0C298.216 0 300.368 0.784 301.912 2.36C303.456 3.928 304.232 5.912 304.232 8.312C304.232 10.712 303.456 12.704 301.912 14.288C300.368 15.872 298.352 16.664 295.88 16.664C293.408 16.664 291.336 15.88 289.808 14.32C288.28 12.76 287.52 10.768 287.52 8.352V8.36ZM292.24 4.504C291.352 5.512 290.904 6.784 290.904 8.336C290.904 9.888 291.36 11.16 292.272 12.152C293.184 13.152 294.384 13.648 295.872 13.648C297.36 13.648 298.592 13.152 299.496 12.16C300.392 11.168 300.84 9.896 300.84 8.328C300.84 6.76 300.384 5.504 299.472 4.496C298.56 3.488 297.352 2.984 295.848 2.984C294.344 2.984 293.128 3.488 292.24 4.496V4.504Z"
            fill="#B0368F" />
        <path
            d="M317.56 4.91999C317.56 6.77599 316.816 8.10399 315.328 8.88799L319.136 16.36H315.68L312.264 9.48799H310.872V16.36H307.664V0.303986H312.632C314.224 0.303986 315.448 0.703986 316.288 1.49599C317.128 2.29599 317.552 3.43199 317.552 4.91999H317.56ZM312.384 3.08799H310.872V6.84799H312.384C312.968 6.84799 313.424 6.67199 313.744 6.32799C314.064 5.97599 314.224 5.51999 314.224 4.94399C314.224 4.36799 314.064 3.91999 313.744 3.58399C313.424 3.24799 312.976 3.08799 312.384 3.08799Z"
            fill="#B0368F" />
        <path d="M144.88 26.648H141.952V39.696H138.728V26.648H135.8V23.632H144.88V26.648Z" fill="#B0368F" />
        <path
            d="M158.096 28.256C158.096 30.112 157.352 31.44 155.864 32.224L159.672 39.696H156.216L152.8 32.824H151.408V39.696H148.2V23.632H153.168C154.76 23.632 155.984 24.032 156.824 24.824C157.664 25.624 158.088 26.76 158.088 28.248L158.096 28.256ZM152.912 26.416H151.4V30.176H152.912C153.496 30.176 153.952 30 154.272 29.656C154.592 29.304 154.752 28.848 154.752 28.272C154.752 27.696 154.592 27.248 154.272 26.912C153.952 26.576 153.504 26.416 152.912 26.416Z"
            fill="#B0368F" />
        <path
            d="M173.648 39.696L172.048 35.288H166.544L164.968 39.696H161.784L167.584 23.632H170.976L177.056 39.696H173.64H173.648ZM169.28 27.72L167.536 32.552H171.04L169.272 27.72H169.28Z"
            fill="#B0368F" />
        <path
            d="M190.04 39.696L183.008 29.112V39.696H179.872V23.632H183.216L190.112 34.4V23.632H193.248V39.696H190.048H190.04Z"
            fill="#B0368F" />
        <path
            d="M200.16 27.696C200.16 28.504 200.664 29.112 201.672 29.528C201.84 29.608 202.2 29.752 202.752 29.968C203.304 30.184 203.744 30.368 204.088 30.528C206.144 31.44 207.176 32.936 207.176 35.008C207.176 36.528 206.688 37.736 205.712 38.64C204.736 39.544 203.456 40 201.88 40C201.056 40 200.336 39.896 199.712 39.688C199.088 39.48 198.584 39.208 198.2 38.872C197.816 38.536 197.512 38.136 197.272 37.664C197.032 37.192 196.872 36.72 196.792 36.248C196.712 35.776 196.688 35.28 196.72 34.752H199.784C199.768 35.464 199.928 36.048 200.256 36.512C200.592 36.976 201.128 37.208 201.872 37.208C202.464 37.208 202.936 37.048 203.296 36.72C203.656 36.392 203.84 35.936 203.84 35.352C203.84 34.456 203.264 33.768 202.12 33.288C201.968 33.224 201.552 33.056 200.88 32.776C200.208 32.496 199.696 32.256 199.336 32.056C197.744 31.224 196.944 29.824 196.944 27.856C196.944 26.528 197.392 25.44 198.288 24.592C199.184 23.744 200.376 23.328 201.864 23.328C203.568 23.328 204.808 23.776 205.576 24.664C206.352 25.552 206.704 26.712 206.64 28.136H203.672C203.672 27.536 203.512 27.04 203.192 26.664C202.872 26.288 202.432 26.096 201.856 26.096C201.312 26.096 200.896 26.248 200.592 26.552C200.288 26.856 200.136 27.24 200.136 27.704L200.16 27.696Z"
            fill="#B0368F" />
        <path
            d="M223.44 39.696H216.008V23.632H223.368V26.648H219.24V29.992H223.256V32.96H219.24V36.672H223.44V39.688V39.696Z"
            fill="#B0368F" />
        <path
            d="M226.552 31.688C226.552 29.304 227.328 27.312 228.888 25.72C230.44 24.128 232.432 23.328 234.84 23.328C237.248 23.328 239.4 24.112 240.944 25.688C242.488 27.256 243.264 29.24 243.264 31.64C243.264 33.408 242.792 34.992 241.848 36.4L243.192 37.56L241.192 39.904L239.656 38.584C238.28 39.528 236.688 40 234.896 40C232.376 40 230.352 39.216 228.824 37.656C227.296 36.096 226.536 34.104 226.536 31.688H226.552ZM229.896 31.664C229.896 33.224 230.36 34.52 231.288 35.528C232.216 36.536 233.424 37.048 234.912 37.048C235.792 37.048 236.592 36.872 237.304 36.512L236.024 35.4L238 33.056L239.392 34.288C239.744 33.496 239.928 32.624 239.928 31.664C239.928 30.104 239.464 28.816 238.544 27.8C237.624 26.784 236.408 26.28 234.888 26.28C233.368 26.28 232.144 26.784 231.24 27.792C230.344 28.8 229.896 30.088 229.896 31.672V31.664Z"
            fill="#B0368F" />
        <path
            d="M252.992 40C250.872 40 249.28 39.416 248.208 38.248C247.136 37.08 246.608 35.472 246.608 33.432V23.632H249.832V33.432C249.832 34.528 250.096 35.4 250.632 36.032C251.168 36.664 251.968 36.984 253.032 36.984C254.096 36.984 254.832 36.656 255.376 36.008C255.92 35.36 256.192 34.488 256.192 33.408V23.632H259.416V33.408C259.416 35.376 258.856 36.96 257.736 38.176C256.616 39.392 255.032 40 252.992 40Z"
            fill="#B0368F" />
        <path
            d="M273.312 39.696L271.712 35.288H266.208L264.632 39.696H261.448L267.248 23.632H270.64L276.72 39.696H273.304H273.312ZM268.944 27.72L267.2 32.552H270.704L268.936 27.72H268.944Z"
            fill="#B0368F" />
        <path d="M286.824 39.696H279.536V23.632H282.76V36.68H286.824V39.696Z" fill="#B0368F" />
        <path d="M293.44 23.632V39.696H290.216V23.632H293.44Z" fill="#B0368F" />
        <path d="M305.832 26.648H302.904V39.696H299.68V26.648H296.752V23.632H305.832V26.648Z" fill="#B0368F" />
        <path
            d="M312.704 31.664L308.224 23.632H311.824L314.424 28.504L317.072 23.632H320.488L315.936 31.616V39.696H312.712V31.664H312.704Z"
            fill="#B0368F" />
    </g>
    <defs>
        <clipPath id="clip0_1828_42737">
            <rect width="320.48" height="40" fill="#B0368F" />
        </clipPath>
    </defs>
</svg>
