<?xml version="1.0" encoding="utf-8"?>
<!-- Generator: Adobe Illustrator 26.0.3, SVG Export Plug-In . SVG Version: 6.00 Build 0)  -->
<svg version="1.1" id="Layer_1" xmlns="http://www.w3.org/2000/svg" xmlns:xlink="http://www.w3.org/1999/xlink" x="0px" y="0px"
	 viewBox="0 0 298.1 110.8" style="enable-background:new 0 0 298.1 110.8;" xml:space="preserve">
<style type="text/css">
	.st0{fill:#FFFFFF;}
	.st1{fill:#FFBA10;}
	.st2{fill:#01B6FF;}
	.st3{fill:#AA3DFE;}
	.st4{fill:#FF0282;}
</style>
<g>
	<g>
		<path class="st0" d="M146,17.1c7.9,0,11.4,5.7,11.4,11.4c0,5.7-3.5,11.3-11.4,11.3h-7.2V52h-7.1v-35H146z M145.6,33.6
			c3.4,0,4.7-2.6,4.7-5.1c0-2.5-1.3-5.2-4.6-5.2h-7v10.3H145.6z"/>
		<path class="st0" d="M157.5,40.2c0-7.5,6-12.5,12.7-12.5s12.7,5,12.7,12.5c0,7.5-6,12.4-12.7,12.4S157.5,47.7,157.5,40.2z
			 M176.2,40.2c0-3.7-2.7-6.3-6-6.3c-3.3,0-6,2.6-6,6.3c0,3.7,2.7,6.2,6,6.2C173.5,46.4,176.2,43.8,176.2,40.2z"/>
		<path class="st0" d="M185.5,20.2c0-2.2,1.9-4,4.2-4c2.3,0,4.2,1.7,4.2,4c0,2.2-1.9,4-4.2,4C187.5,24.2,185.5,22.4,185.5,20.2z
			 M186.4,52V28.3h6.6V52H186.4z"/>
		<path class="st0" d="M221.1,39v13h-6.6V39.4c0-3.7-2.2-5.4-4.5-5.4c-2.4,0-5.3,1.3-5.3,5.6V52H198V28.3h6.6v4
			c1-3.2,4.8-4.6,7.1-4.6C217.9,27.7,221.2,31.9,221.1,39z"/>
		<path class="st0" d="M239,28.3v5.2h-5V52h-6.6V33.5h-4.3v-5.2h4.3v-8.6h6.6v8.6H239z"/>
		<path class="st0" d="M249.7,40.2c0-7.5,6-12.5,12.7-12.5s12.7,5,12.7,12.5c0,7.5-6,12.4-12.7,12.4S249.7,47.7,249.7,40.2z
			 M268.5,40.2c0-3.7-2.7-6.3-6-6.3s-6,2.6-6,6.3c0,3.7,2.7,6.2,6,6.2S268.5,43.8,268.5,40.2z"/>
		<path class="st0" d="M292.6,21.6c-3.8,0-5,2.1-5.1,4.9v1.8h5.2v5.2h-5.2V52h-6.6V33.5h-4.5v-5.2h4.5v-1.7
			c0-7.1,3.7-11.2,10.4-11.2h2.8v6.2H292.6z"/>
	</g>
	<g>
		<path class="st0" d="M146,59.4c7.9,0,11.4,5.7,11.4,11.4c0,5.7-3.5,11.3-11.4,11.3h-7.2v12.2h-7.1v-35H146z M145.6,75.9
			c3.4,0,4.7-2.6,4.7-5.1c0-2.5-1.3-5.2-4.6-5.2h-7v10.3H145.6z"/>
		<path class="st0" d="M177.6,70.8l-1.5,6.3c-1.4-0.8-2.6-0.9-3.4-0.9c-3.4,0-5.7,3.2-5.7,9.9v8.1h-6.6V70.7h6.6v5.1
			c1.3-4,4-5.7,6.9-5.7C175.1,70.1,176.5,70.3,177.6,70.8z"/>
		<path class="st0" d="M179.5,62.5c0-2.2,1.9-4,4.2-4c2.3,0,4.2,1.7,4.2,4c0,2.2-1.9,4-4.2,4C181.4,66.5,179.5,64.7,179.5,62.5z
			 M180.4,94.4V70.7h6.6v23.7H180.4z"/>
		<path class="st0" d="M209.5,57.8h6.6v36.6h-6.6v-2.9c-1.7,2.4-5,3.6-7.6,3.6c-6.1,0-11.6-4.9-11.6-12.5c0-7.6,5.5-12.4,11.6-12.4
			c2.7,0,5.9,1.1,7.6,3.5V57.8z M209.3,82.5c0-3.7-3-6.2-6.1-6.2c-3.3,0-6.1,2.7-6.1,6.2c0,3.4,2.8,6.3,6.1,6.3
			C206.4,88.8,209.3,86.1,209.3,82.5z"/>
		<path class="st0" d="M244,84.7h-17.8c0.7,2.8,2.9,4.4,6.1,4.4c2.4,0,4.8-1.1,6.2-2.8l3.9,3.9c-2.2,3-6.3,4.8-10.5,4.8
			c-7.3,0-12.6-5.1-12.6-12.4c0-7.7,5.8-12.5,12.6-12.5c6.8,0,12.3,4.8,12.3,12.1C244.1,82.8,244.1,83.6,244,84.7z M237.4,80.4
			c-0.2-2.8-2.5-4.6-5.5-4.6c-2.7,0-5.1,1.4-5.8,4.6H237.4z"/>
	</g>
</g>
<g>
	<path class="st1" d="M31,46.9c2-6-3-12.9-11.8-17.3c-1.6-0.8-3.3-1.5-5.2-2.2c-1.1,1.7-2.1,3.4-3,5.3c-2.2,4.4-3.7,9.1-4.5,14
		c-0.3,2-0.6,4-0.7,6c1.9,0.6,3.7,1,5.5,1.3C21,55.6,29,52.9,31,46.9z M16.1,34.7c6.4,3.2,10.1,7.7,9.2,10.4
		c-0.9,2.7-6.5,4.2-13.5,3C12.5,43.3,14,38.9,16.1,34.7z"/>
	<path class="st1" d="M35.7,23.9c0.4,1.3,0.8,2.6,1.1,4c0,0,0,0,0,0c1.5,0.9,3.2,1.7,4.8,2.3c0.6,0.2,1.1,0.4,1.7,0.6
		c-0.1-1.1-0.3-2.1-0.5-3.1c-0.9-4.9-2.7-9.5-5.1-13.8c-0.9-1.6-2-3.2-3.1-4.6c-1.8,0.9-3.6,1.9-5.3,2.9c1.2,1.4,2.2,2.9,3.2,4.5
		C33.8,19,34.8,21.4,35.7,23.9z"/>
	<path class="st1" d="M42.8,39.8c-1.8-0.5-3.5-1.2-5.2-1.9c-0.2,3.5-0.7,7-1.9,10.5c-1.1,3.4-2.6,6.5-4.4,9.3
		c-0.1,0.2-0.2,0.3-0.3,0.5c-0.5,0.7-0.9,1.4-1.4,2c-0.5,0.7-1.1,1.4-1.7,2.1c-1,1.1-2,2.2-3.1,3.2l0,0c-0.8,0.7-1.7,1.4-2.5,2.1
		c-0.2,0.2-0.5,0.3-0.7,0.5c-2.2,1.6-4.5,2.9-7,4c-1.7,0.7-3.4,1.4-5.2,1.8c0.7,1.9,1.6,3.7,2.5,5.5c1.8-0.5,3.5-1.2,5.3-1.9
		c4.6-2,8.9-4.9,12.6-8.5c0.7-0.7,1.4-1.4,2.1-2.1c1.4-1.6,2.7-3.2,3.9-5c0.5-0.8,1-1.6,1.5-2.4c1.7-2.9,3.1-5.9,4.2-9.2
		c1.1-3.4,1.8-6.9,2.1-10.3C43.2,40,43,39.9,42.8,39.8z"/>
</g>
<g>
	<path class="st2" d="M56.7,4.3c-2.6,0-5.1,0.2-7.6,0.6c-2,0.3-4,0.7-5.9,1.3c0,2,0.2,3.8,0.5,5.6c1.6,9.7,6.5,16.4,12.8,16.4
		c6.3,0,11.3-6.8,12.8-16.5c0.3-1.8,0.4-3.6,0.5-5.6c-1.9-0.5-3.9-0.9-5.9-1.2C61.5,4.5,59.1,4.3,56.7,4.3z M56.5,22.1
		c-2.8,0-5.9-4.8-7-11.8c2.3-0.4,4.8-0.6,7.2-0.6c2.3,0,4.6,0.2,6.8,0.5C62.4,17.3,59.3,22.1,56.5,22.1z"/>
	<path class="st2" d="M88.9,15.8c-1,1.5-2.1,3-3.3,4.4c-1.7,1.9-3.7,3.7-5.8,5.2c-1.1,0.8-2.2,1.6-3.5,2.3c0,0,0,0,0,0
		c-0.2,1.2-0.4,2.3-0.6,3.5c-0.1,1.2-0.2,2.4-0.2,3.6c1-0.4,1.9-0.9,2.8-1.4c4.4-2.4,8.3-5.5,11.5-9.1c1.2-1.4,2.4-2.9,3.4-4.4
		C92,18.4,90.5,17.1,88.9,15.8z"/>
	<path class="st2" d="M56.5,33.1c-3.6,0-7-0.5-10.3-1.3c-0.2,0-0.4-0.1-0.5-0.1c-0.8-0.2-1.6-0.5-2.4-0.7h0
		c-0.6-0.2-1.1-0.4-1.7-0.6c-1.7-0.7-3.3-1.5-4.8-2.3c0,0,0,0,0,0c-1-0.6-1.9-1.2-2.8-1.8c-0.2-0.2-0.4-0.3-0.7-0.5
		c-2.1-1.5-4.1-3.3-5.8-5.2c-1.2-1.4-2.4-2.8-3.4-4.4c-1.5,1.3-3,2.7-4.4,4.1c1.1,1.5,2.2,3,3.5,4.4c3.3,3.7,7.3,6.8,11.8,9.1
		c0.9,0.5,1.8,0.9,2.7,1.3c1.9,0.9,3.9,1.6,6,2.2c0.9,0.3,1.8,0.5,2.8,0.7C49.6,38.6,53,39,56.5,39c3.6,0,7.1-0.4,10.4-1.2
		c0-0.2,0-0.4,0-0.6c-0.1-1.9,0-3.7,0.2-5.6C63.7,32.5,60.1,33.1,56.5,33.1z"/>
</g>
<g>
	<path class="st0" d="M92,67.9c-1.1-0.8-2.2-1.6-3.3-2.6c0,0,0,0,0,0c-0.4,0-0.8,0.1-1.2,0.2c-0.7,0.1-1.4,0.2-2,0.3
		c-1.3,0.2-2.5,0.6-3.8,0.9c0.7,0.8,1.5,1.5,2.3,2.3c3.7,3.5,7.9,6.3,12.5,8.2c1.7,0.7,3.5,1.4,5.3,1.9c0.9-1.8,1.8-3.6,2.5-5.5
		c-1.8-0.5-3.5-1.1-5.2-1.8C96.6,70.8,94.2,69.5,92,67.9z"/>
	<path class="st0" d="M82.3,46.5c2,6,10,8.7,19.8,7.1c1.8-0.3,3.6-0.7,5.5-1.3c-0.1-2-0.4-4-0.7-6c-0.9-4.9-2.5-9.6-4.7-14
		c-0.9-1.8-1.9-3.6-3-5.2c-1.9,0.6-3.6,1.4-5.2,2.2C85.2,33.7,80.3,40.5,82.3,46.5z M97,34.3c2.1,4.1,3.7,8.6,4.5,13.3
		c-7.1,1.2-12.7-0.3-13.6-3C87.1,42,90.7,37.5,97,34.3z"/>
	<path class="st0" d="M77.5,48c-1.1-3.4-1.7-6.8-1.9-10.2c0-0.2,0-0.4,0-0.6c0-0.8-0.1-1.7,0-2.5c0-1.2,0.1-2.4,0.2-3.6
		c0.1-1.2,0.3-2.4,0.6-3.5c0,0,0,0,0,0c0.2-1.1,0.5-2.2,0.8-3.2c0.1-0.3,0.2-0.5,0.3-0.8c0.8-2.5,1.9-4.9,3.1-7.1
		c0.9-1.6,2-3.1,3.1-4.6c-1.7-1.1-3.5-2-5.3-2.9c-1.1,1.5-2.2,3-3.1,4.7c-2.4,4.3-4.1,9-5,14c-0.2,1-0.3,2-0.4,3
		c-0.2,2.1-0.3,4.2-0.3,6.3c0,0.9,0.1,1.9,0.2,2.8c0.3,3.3,1,6.6,2.1,9.9c1.1,3.4,2.6,6.6,4.4,9.5c0.2-0.1,0.4-0.2,0.6-0.2
		c1.7-0.6,3.5-1.1,5.4-1.5C80.3,54.7,78.7,51.5,77.5,48z"/>
</g>
<g>
	<path class="st3" d="M24.7,65.6c1.1-1,2.1-2.1,3.1-3.2c0.6-0.7,1.2-1.4,1.7-2.1c-1-0.2-2.1-0.4-3.1-0.5c-5-0.6-10.1-0.4-14.9,0.7
		c-1.8,0.4-3.6,0.9-5.4,1.6c0.3,2,0.6,4,1.1,5.9c1.7-0.7,3.5-1.2,5.3-1.6c2.6-0.6,5.3-0.9,8-0.9C22,65.4,23.3,65.4,24.7,65.6z"/>
	<path class="st3" d="M41,77c-5.1-3.7-13.3-1.1-20.3,6c-1.3,1.3-2.5,2.7-3.7,4.3c1.3,1.6,2.6,3.1,4.1,4.5c3.5,3.4,7.5,6.3,11.9,8.6
		c1.8,0.9,3.6,1.8,5.5,2.5c1.1-1.6,2.1-3.2,2.9-4.8C46.2,89.3,46.2,80.7,41,77z M36.1,95.8c-4.2-2.2-8.1-4.9-11.4-8.3
		c5-5.2,10.5-7.4,12.9-5.7C39.9,83.5,39.5,89.4,36.1,95.8z"/>
	<path class="st3" d="M66,105.4c0.1-1.9,0-3.7-0.2-5.6c-0.5-5-1.9-10-4.2-14.7c-0.4-0.9-0.9-1.8-1.4-2.7v0c-1-1.8-2.2-3.6-3.5-5.3
		c-0.6-0.7-1.2-1.5-1.8-2.2c-2.2-2.5-4.7-4.8-7.5-6.8c-2.9-2.1-6-3.8-9.2-5.1c-0.1,0.2-0.2,0.3-0.3,0.5c-1,1.5-2.2,3-3.4,4.4
		c3.3,1.2,6.4,2.9,9.4,5c2.9,2.1,5.4,4.5,7.5,7.1c0.1,0.1,0.2,0.3,0.3,0.4c0.5,0.6,1,1.3,1.5,2c0,0,0,0,0,0c1.2,1.7,2.2,3.5,3.1,5.4
		c0.1,0.3,0.3,0.6,0.4,0.8c0.4-0.9,0.8-1.7,1.3-2.6c0,0,0,0,0,0c-0.5,0.9-0.9,1.7-1.3,2.6c0.5,1,0.9,2,1.2,3.1
		c0.1,0.3,0.2,0.5,0.3,0.8c0.8,2.6,1.4,5.3,1.7,8c0.2,1.8,0.2,3.7,0.1,5.5C62.1,106,64.1,105.7,66,105.4z"/>
</g>
<g>
	<path class="st4" d="M72.7,76.7c-5.2,3.7-5.2,12.3-0.5,21.2c0.8,1.6,1.8,3.2,2.9,4.8c1.9-0.7,3.7-1.6,5.5-2.5
		c4.4-2.3,8.4-5.3,11.9-8.8c1.4-1.4,2.8-2.9,4.1-4.5c-1.2-1.6-2.4-3-3.7-4.3C85.9,75.6,77.9,73,72.7,76.7z M77.7,95.6
		c-3.4-6.4-3.8-12.3-1.5-14C78.5,79.9,84,82,89,87.2C85.7,90.5,81.9,93.4,77.7,95.6z"/>
	<path class="st4" d="M53.3,82.5c-0.5,0.9-1,1.9-1.4,2.8c-2.2,4.6-3.5,9.6-4,14.5c-0.2,1.9-0.2,3.7-0.2,5.6c2,0.3,4,0.6,6,0.7
		c-0.1-1.8-0.1-3.7,0.1-5.5c0.2-2.7,0.8-5.4,1.6-8c0.4-1.3,0.9-2.6,1.4-3.9c-0.1-0.3-0.3-0.6-0.4-0.8C55.5,86,54.5,84.2,53.3,82.5z"
		/>
	<path class="st4" d="M101.9,60.1c-4.9-1-10-1.2-15.1-0.5c-1,0.1-2,0.3-3,0.5c-2.1,0.4-4.1,1-6.1,1.7c-0.9,0.3-1.8,0.7-2.6,1.1
		c-3.1,1.3-6,3-8.8,5c-2.9,2.1-5.5,4.5-7.7,7.1c0.1,0.2,0.3,0.3,0.4,0.5c1.1,1.5,2.2,3,3.1,4.6c2.2-2.7,4.7-5.2,7.7-7.4
		c2.9-2.1,5.9-3.7,9.1-4.9c0.2-0.1,0.3-0.1,0.5-0.2c0.8-0.3,1.6-0.6,2.3-0.8c1.3-0.4,2.5-0.7,3.8-0.9c0.7-0.1,1.3-0.2,2-0.3
		c0.4-0.1,0.8-0.1,1.2-0.2c0,0,0,0,0,0c1.1-0.1,2.2-0.2,3.3-0.2c0.3,0,0.5,0,0.8,0c2.7,0,5.4,0.3,8,0.9c1.8,0.4,3.6,0.9,5.3,1.6
		c0.5-1.9,0.8-3.9,1.1-5.9C105.5,61,103.7,60.5,101.9,60.1z"/>
</g>
</svg>
